<svg xmlns="http://www.w3.org/2000/svg" viewBox="0 0 200 200">
  <!-- Acorn Smartan - Red/Enraged State (200% faster attacks) -->
  <g>
    <!-- Helmet -->
    <path d="M50 50 C50 30, 150 30, 150 50 L140 90 C140 100, 60 100, 60 90 Z" fill="#B71C1C" stroke="#3E2723" stroke-width="3"/>
    <path d="M60 50 C60 35, 140 35, 140 50 L130 85 C130 95, 70 95, 70 85 Z" fill="#D32F2F" stroke="none"/>
    
    <!-- Face -->
    <circle cx="100" cy="110" r="40" fill="#FFCDD2" stroke="#3E2723" stroke-width="3"/>
    
    <!-- Eyes -->
    <path d="M80 100 L95 105 L80 110 Z" fill="#FFEB3B" stroke="#3E2723" stroke-width="2"/>
    <path d="M120 100 L105 105 L120 110 Z" fill="#FFEB3B" stroke="#3E2723" stroke-width="2"/>
    
    <!-- Mouth -->
    <path d="M85 125 L115 125 L115 130 L85 130 Z" fill="#FFFFFF" stroke="#3E2723" stroke-width="2"/>
    
    <!-- Shield -->
    <circle cx="140" cy="120" r="25" fill="#8D6E63" stroke="#3E2723" stroke-width="3"/>
    <circle cx="140" cy="120" r="20" fill="#A1887F" stroke="#3E2723" stroke-width="1"/>
    <path d="M130 110 C140 105, 150 110, 160 120 C150 130, 140 135, 130 130 Z" fill="#6D4C41" stroke="none"/>
    <path d="M130 130 C140 135, 150 130, 160 120 C150 110, 140 105, 130 110 Z" fill="#6D4C41" stroke="none"/>
    
    <!-- Spear -->
    <line x1="30" y1="120" x2="140" y2="120" stroke="#6D4C41" stroke-width="5"/>
    <path d="M30 110 L10 120 L30 130 Z" fill="#A1887F" stroke="#3E2723" stroke-width="2"/>
    
    <!-- Speed Effect -->
    <path d="M50 90 L40 100 L50 110" stroke="#FFEB3B" stroke-width="2" fill="none"/>
    <path d="M45 90 L35 100 L45 110" stroke="#FFEB3B" stroke-width="2" fill="none"/>
  </g>
</svg>