<svg xmlns="http://www.w3.org/2000/svg" viewBox="0 0 100 120">
  <!-- Head -->
  <ellipse cx="50" cy="40" rx="25" ry="25" fill="#7CB342" stroke="#1B5E20" stroke-width="2" />
  
  <!-- Eyes -->
  <ellipse cx="40" cy="35" rx="8" ry="10" fill="#000" />
  <ellipse cx="60" cy="35" rx="8" ry="10" fill="#000" />
  
  <!-- Eye highlights -->
  <ellipse cx="42" cy="32" rx="3" ry="3" fill="#FFF" />
  <ellipse cx="62" cy="32" rx="3" ry="3" fill="#FFF" />
  
  <!-- Mouth/Shooter -->
  <ellipse cx="85" cy="40" rx="15" ry="12" fill="#7CB342" stroke="#1B5E20" stroke-width="2" />
  <ellipse cx="95" cy="40" rx="8" ry="8" fill="#1B5E20" />
  
  <!-- Stem -->
  <rect x="48" y="65" width="4" height="25" fill="#2E7D32" />
  
  <!-- Leaves at base -->
  <path d="M50 90 L30 80 L25 85 L48 95 Z" fill="#2E7D32" />
  <path d="M50 90 L70 80 L75 85 L52 95 Z" fill="#2E7D32" />
  <path d="M50 90 L40 100 L45 110 L55 110 L60 100 Z" fill="#2E7D32" />
  
  <!-- Leaf on top -->
  <path d="M50 65 L30 55 L20 60 L45 70 Z" fill="#2E7D32" />
</svg>