<svg xmlns="http://www.w3.org/2000/svg" viewBox="0 0 100 120">
  <!-- Petals -->
  <path d="M50 30 L60 10 L50 0 L40 10 Z" fill="#FFE135" />
  <path d="M50 30 L70 15 L75 0 L55 10 Z" fill="#FFE135" />
  <path d="M50 30 L80 25 L90 10 L65 20 Z" fill="#FFE135" />
  <path d="M50 30 L85 40 L100 30 L70 30 Z" fill="#FFE135" />
  <path d="M50 30 L80 55 L95 55 L65 40 Z" fill="#FFE135" />
  <path d="M50 30 L65 70 L75 80 L55 50 Z" fill="#FFE135" />
  <path d="M50 30 L40 70 L25 80 L45 50 Z" fill="#FFE135" />
  <path d="M50 30 L20 55 L5 55 L35 40 Z" fill="#FFE135" />
  <path d="M50 30 L15 40 L0 30 L30 30 Z" fill="#FFE135" />
  <path d="M50 30 L20 25 L10 10 L35 20 Z" fill="#FFE135" />
  <path d="M50 30 L30 15 L25 0 L45 10 Z" fill="#FFE135" />
  
  <!-- Face -->
  <circle cx="50" cy="30" r="15" fill="#D06B00" />
  <circle cx="50" cy="30" r="12" fill="#F08C00" />
  
  <!-- Eyes -->
  <ellipse cx="45" cy="27" rx="3" ry="4" fill="#000" />
  <ellipse cx="55" cy="27" rx="3" ry="4" fill="#000" />
  
  <!-- Smile -->
  <path d="M43 35 Q50 40 57 35" fill="none" stroke="#000" stroke-width="1.5" />
  
  <!-- Stem -->
  <rect x="48" y="50" width="4" height="40" fill="#0A8" />
  
  <!-- Leaves -->
  <path d="M50 70 L65 60 L70 65 L55 75 Z" fill="#0A8" />
  <path d="M50 80 L35 70 L30 75 L45 85 Z" fill="#0A8" />
  
  <!-- Base -->
  <path d="M40 90 Q50 100 60 90 L55 110 Q50 115 45 110 Z" fill="#0A8" />
</svg>