<svg xmlns="http://www.w3.org/2000/svg" viewBox="0 0 100 120" width="100" height="120">
  <!-- Twin Sunflower -->
  <g>
    <!-- Stem -->
    <rect x="45" y="80" width="10" height="30" fill="#2E7D32" />
    <path d="M45 90 C25 85, 25 95, 45 90" fill="#2E7D32" />
    <path d="M55 100 C75 95, 75 105, 55 100" fill="#2E7D32" />
    
    <!-- First Sunflower -->
    <circle cx="40" cy="45" r="20" fill="#FFC107" />
    
    <!-- First Sunflower Petals -->
    <path d="M40 25 L40 15 L45 20 L35 20 Z" fill="#FFC107" />
    <path d="M55 30 L65 25 L60 35 L55 30 Z" fill="#FFC107" />
    <path d="M55 60 L65 65 L55 70 L55 60 Z" fill="#FFC107" />
    <path d="M40 65 L40 75 L35 70 L45 70 Z" fill="#FFC107" />
    <path d="M25 60 L15 65 L20 55 L25 60 Z" fill="#FFC107" />
    <path d="M25 30 L15 25 L25 20 L25 30 Z" fill="#FFC107" />
    
    <!-- First Sunflower Face -->
    <circle cx="40" cy="45" r="12" fill="#8D6E63" />
    <circle cx="35" cy="40" r="2.5" fill="#000" />
    <circle cx="45" cy="40" r="2.5" fill="#000" />
    <path d="M35 50 Q40 55 45 50" fill="none" stroke="#000" stroke-width="1.5" />
    
    <!-- Second Sunflower -->
    <circle cx="60" cy="45" r="20" fill="#FFC107" />
    
    <!-- Second Sunflower Petals -->
    <path d="M60 25 L60 15 L65 20 L55 20 Z" fill="#FFC107" />
    <path d="M75 30 L85 25 L80 35 L75 30 Z" fill="#FFC107" />
    <path d="M75 60 L85 65 L75 70 L75 60 Z" fill="#FFC107" />
    <path d="M60 65 L60 75 L55 70 L65 70 Z" fill="#FFC107" />
    <path d="M45 60 L35 65 L40 55 L45 60 Z" fill="#FFC107" />
    <path d="M45 30 L35 25 L45 20 L45 30 Z" fill="#FFC107" />
    
    <!-- Second Sunflower Face -->
    <circle cx="60" cy="45" r="12" fill="#8D6E63" />
    <circle cx="55" cy="40" r="2.5" fill="#000" />
    <circle cx="65" cy="40" r="2.5" fill="#000" />
    <path d="M55 50 Q60 55 65 50" fill="none" stroke="#000" stroke-width="1.5" />
    
    <!-- Sun Particles -->
    <circle cx="35" cy="30" r="1.5" fill="#FFEB3B" />
    <circle cx="65" cy="30" r="1.5" fill="#FFEB3B" />
    <circle cx="50" cy="25" r="1.5" fill="#FFEB3B" />
    <circle cx="75" cy="45" r="1.5" fill="#FFEB3B" />
    <circle cx="25" cy="45" r="1.5" fill="#FFEB3B" />
  </g>
</svg>