<svg xmlns="http://www.w3.org/2000/svg" viewBox="0 0 100 100" width="100" height="100">
  <!-- Cat body -->
  <ellipse cx="50" cy="60" rx="40" ry="30" fill="#FFFFFF" />
  
  <!-- Cat head -->
  <circle cx="50" cy="40" r="25" fill="#FFFFFF" />
  
  <!-- Cat ears -->
  <polygon points="30,25 40,5 50,25" fill="#FFFFFF" />
  <polygon points="70,25 60,5 50,25" fill="#FFFFFF" />
  
  <!-- Cat eyes -->
  <ellipse cx="40" cy="35" rx="5" ry="7" fill="#0088FF" />
  <ellipse cx="60" cy="35" rx="5" ry="7" fill="#0088FF" />
  
  <!-- Cat nose -->
  <polygon points="50,45 47,50 53,50" fill="#FF6B6B" />
  
  <!-- Cat mouth -->
  <path d="M45,55 Q50,60 55,55" stroke="#000" stroke-width="2" fill="none" />
  
  <!-- Cat whiskers -->
  <line x1="30" y1="45" x2="10" y2="40" stroke="#000" stroke-width="1" />
  <line x1="30" y1="50" x2="10" y2="50" stroke="#000" stroke-width="1" />
  <line x1="30" y1="55" x2="10" y2="60" stroke="#000" stroke-width="1" />
  
  <line x1="70" y1="45" x2="90" y2="40" stroke="#000" stroke-width="1" />
  <line x1="70" y1="50" x2="90" y2="50" stroke="#000" stroke-width="1" />
  <line x1="70" y1="55" x2="90" y2="60" stroke="#000" stroke-width="1" />
  
  <!-- Cat claws (for attack animation) -->
  <g id="claws" opacity="0">
    <path d="M20,70 L10,65 M20,75 L10,75 M20,80 L10,85" stroke="#FF0000" stroke-width="3" />
    <path d="M80,70 L90,65 M80,75 L90,75 M80,80 L90,85" stroke="#FF0000" stroke-width="3" />
  </g>
  
  <style>
    @keyframes claw-attack {
      0% { opacity: 0; }
      50% { opacity: 1; }
      100% { opacity: 0; }
    }
    
    .attacking #claws {
      opacity: 1;
      animation: claw-attack 0.3s ease-in-out;
    }
  </style>
</svg>