<svg xmlns="http://www.w3.org/2000/svg" viewBox="0 0 100 100">
  <!-- Zombie Head -->
  <circle cx="50" cy="30" r="20" fill="#8BC34A" stroke="#689F38" stroke-width="2" />
  
  <!-- Zombie Eyes -->
  <circle cx="42" cy="25" r="5" fill="#FFFFFF" stroke="#000000" stroke-width="1" />
  <circle cx="58" cy="25" r="5" fill="#FFFFFF" stroke="#000000" stroke-width="1" />
  <circle cx="42" cy="25" r="2" fill="#FF0000" />
  <circle cx="58" cy="25" r="2" fill="#FF0000" />
  
  <!-- Zombie Mouth -->
  <path d="M40 40 Q50 45 60 40" stroke="#000000" stroke-width="2" fill="none" />
  
  <!-- Zombie Body -->
  <rect x="40" y="50" width="20" height="30" fill="#8BC34A" stroke="#689F38" stroke-width="2" />
  
  <!-- Zombie Arms -->
  <rect x="25" y="55" width="15" height="5" fill="#8BC34A" stroke="#689F38" stroke-width="1" rx="2" ry="2" transform="rotate(20, 25, 55)" />
  <rect x="60" y="55" width="15" height="5" fill="#8BC34A" stroke="#689F38" stroke-width="1" rx="2" ry="2" transform="rotate(-20, 75, 55)" />
  
  <!-- Zombie Legs -->
  <rect x="42" y="80" width="6" height="15" fill="#8BC34A" stroke="#689F38" stroke-width="1" />
  <rect x="52" y="80" width="6" height="15" fill="#8BC34A" stroke="#689F38" stroke-width="1" />
  
  <!-- Zombie Torn Clothes -->
  <path d="M40 60 L38 62 L41 64 L39 67 L42 68" stroke="#4E342E" stroke-width="1" fill="none" />
  <path d="M60 60 L62 62 L59 64 L61 67 L58 68" stroke="#4E342E" stroke-width="1" fill="none" />
</svg>